<?xml version="1.0" encoding="utf-8"?>
<!-- Generator: Adobe Illustrator 27.0.0, SVG Export Plug-In . SVG Version: 6.00 Build 0)  -->
<svg version="1.1" id="图层_1" xmlns="http://www.w3.org/2000/svg" xmlns:xlink="http://www.w3.org/1999/xlink" x="0px" y="0px"
	 viewBox="0 0 91 97" style="enable-background:new 0 0 91 97;" xml:space="preserve">
<style type="text/css">
	.st0{fill:#FFFFFF;}
	.st1{enable-background:new    ;}
	.st2{fill:none;}
	
		.st3{fill:#E41A1C;fill-opacity:0.4;stroke:#000000;stroke-width:0.71;stroke-linecap:round;stroke-linejoin:round;stroke-miterlimit:10;stroke-opacity:0.4;}
	.st4{fill:none;stroke:#333333;stroke-width:1.07;stroke-miterlimit:10;}
	.st5{fill:#E41A1C;stroke:#333333;stroke-width:1.07;stroke-miterlimit:10;}
	
		.st6{fill:#377EB8;fill-opacity:0.4;stroke:#000000;stroke-width:0.71;stroke-linecap:round;stroke-linejoin:round;stroke-miterlimit:10;stroke-opacity:0.4;}
	.st7{fill:#377EB8;stroke:#333333;stroke-width:1.07;stroke-miterlimit:10;}
</style>
<g>
	<rect x="24.8" y="30.1" class="st0" width="48.2" height="50.2"/>
	<g class="st1">
		<rect x="24.8" y="29.7" class="st2" width="28.1" height="13"/>
		<path d="M25.4,39.6l0.9,0.1c0,0.3,0.1,0.5,0.3,0.6c0.2,0.2,0.6,0.3,1,0.3c0.4,0,0.8-0.1,1-0.3s0.4-0.4,0.5-0.8
			c0.1-0.2,0.1-0.6,0.1-1.2c-0.4,0.5-0.9,0.7-1.6,0.7c-0.8,0-1.4-0.3-1.8-0.8s-0.6-1.2-0.6-2c0-0.5,0.1-1,0.3-1.5
			c0.2-0.5,0.5-0.8,0.9-1.1c0.4-0.3,0.8-0.4,1.3-0.4c0.7,0,1.2,0.3,1.7,0.8v-0.7h0.9v4.9c0,0.9-0.1,1.5-0.3,1.9
			c-0.2,0.4-0.5,0.7-0.9,0.9c-0.4,0.2-0.9,0.3-1.4,0.3c-0.7,0-1.2-0.2-1.6-0.5C25.6,40.7,25.4,40.2,25.4,39.6z M26.2,36.2
			c0,0.7,0.1,1.3,0.4,1.6s0.7,0.5,1.1,0.5c0.4,0,0.8-0.2,1.1-0.5c0.3-0.3,0.5-0.9,0.5-1.6c0-0.7-0.2-1.2-0.5-1.6
			c-0.3-0.4-0.7-0.5-1.1-0.5c-0.4,0-0.8,0.2-1.1,0.5C26.3,34.9,26.2,35.5,26.2,36.2z"/>
		<path d="M31.7,39.1v-5.7h0.9v0.9c0.2-0.4,0.4-0.7,0.6-0.8c0.2-0.1,0.4-0.2,0.6-0.2c0.3,0,0.7,0.1,1,0.3l-0.3,0.9
			c-0.2-0.1-0.5-0.2-0.7-0.2c-0.2,0-0.4,0.1-0.6,0.2c-0.2,0.1-0.3,0.3-0.4,0.5c-0.1,0.3-0.2,0.7-0.2,1.1v3H31.7z"/>
		<path d="M35,36.3c0-1.1,0.3-1.8,0.9-2.3c0.5-0.4,1.1-0.6,1.8-0.6c0.8,0,1.4,0.3,1.9,0.8c0.5,0.5,0.7,1.2,0.7,2.1
			c0,0.7-0.1,1.3-0.3,1.7c-0.2,0.4-0.5,0.7-1,1c-0.4,0.2-0.9,0.3-1.4,0.3c-0.8,0-1.4-0.3-1.9-0.8C35.2,38,35,37.2,35,36.3z M36,36.3
			c0,0.7,0.2,1.3,0.5,1.6c0.3,0.4,0.7,0.5,1.2,0.5c0.5,0,0.9-0.2,1.2-0.5s0.5-0.9,0.5-1.7c0-0.7-0.2-1.2-0.5-1.6
			c-0.3-0.4-0.7-0.5-1.2-0.5c-0.5,0-0.9,0.2-1.2,0.5S36,35.5,36,36.3z"/>
		<path d="M45.2,39.1v-0.8c-0.4,0.6-1,1-1.8,1c-0.3,0-0.7-0.1-0.9-0.2c-0.3-0.1-0.5-0.3-0.7-0.5c-0.1-0.2-0.2-0.4-0.3-0.7
			c0-0.2-0.1-0.5-0.1-0.9v-3.5h1v3.2c0,0.5,0,0.8,0.1,1c0.1,0.3,0.2,0.5,0.4,0.6c0.2,0.1,0.4,0.2,0.7,0.2s0.6-0.1,0.8-0.2
			c0.3-0.1,0.4-0.4,0.5-0.6c0.1-0.3,0.2-0.6,0.2-1.1v-3.1h1v5.7H45.2z"/>
		<path d="M47.6,41.3v-7.9h0.9v0.7c0.2-0.3,0.4-0.5,0.7-0.7c0.3-0.1,0.6-0.2,1-0.2c0.5,0,0.9,0.1,1.3,0.4s0.7,0.6,0.8,1.1
			c0.2,0.5,0.3,1,0.3,1.5c0,0.6-0.1,1.1-0.3,1.6c-0.2,0.5-0.5,0.8-0.9,1.1c-0.4,0.2-0.8,0.4-1.3,0.4c-0.3,0-0.6-0.1-0.9-0.2
			c-0.3-0.1-0.5-0.3-0.6-0.5v2.8H47.6z M48.4,36.3c0,0.7,0.1,1.3,0.4,1.6s0.7,0.5,1.1,0.5c0.4,0,0.8-0.2,1.1-0.5
			c0.3-0.4,0.5-0.9,0.5-1.7c0-0.7-0.1-1.3-0.4-1.6C50.8,34.2,50.4,34,50,34c-0.4,0-0.8,0.2-1.1,0.6C48.6,35,48.4,35.6,48.4,36.3z"/>
	</g>
	<rect x="24.8" y="45.7" class="st0" width="17.3" height="17.3"/>
	<circle class="st3" cx="33.5" cy="54.4" r="2.5"/>
	<line class="st4" x1="33.5" y1="61.3" x2="33.5" y2="58.7"/>
	<line class="st4" x1="33.5" y1="50.1" x2="33.5" y2="47.5"/>
	<rect x="27" y="50.1" class="st5" width="13" height="8.6"/>
	<line class="st4" x1="27" y1="54.4" x2="39.9" y2="54.4"/>
	<rect x="24.8" y="63" class="st0" width="17.3" height="17.3"/>
	<circle class="st6" cx="33.5" cy="71.7" r="2.5"/>
	<line class="st4" x1="33.5" y1="78.6" x2="33.5" y2="76"/>
	<line class="st4" x1="33.5" y1="67.3" x2="33.5" y2="64.7"/>
	<rect x="27" y="67.3" class="st7" width="13" height="8.6"/>
	<line class="st4" x1="27" y1="71.7" x2="39.9" y2="71.7"/>
	<g class="st1">
		<rect x="47.6" y="50" class="st2" width="25.4" height="10.4"/>
		<path d="M48.3,57.5v-6.3h0.8v2.6h3.3v-2.6h0.8v6.3h-0.8v-3h-3.3v3H48.3z"/>
		<path d="M57.6,56.1l0.8,0.1c-0.1,0.5-0.4,0.8-0.7,1.1s-0.8,0.4-1.3,0.4c-0.7,0-1.2-0.2-1.6-0.6c-0.4-0.4-0.6-1-0.6-1.7
			c0-0.8,0.2-1.4,0.6-1.8c0.4-0.4,0.9-0.6,1.5-0.6c0.6,0,1.1,0.2,1.5,0.6c0.4,0.4,0.6,1,0.6,1.8c0,0,0,0.1,0,0.2h-3.4
			c0,0.5,0.2,0.9,0.4,1.2c0.3,0.3,0.6,0.4,1,0.4c0.3,0,0.5-0.1,0.7-0.2C57.4,56.6,57.5,56.4,57.6,56.1z M55.1,54.8h2.5
			c0-0.4-0.1-0.7-0.3-0.9c-0.2-0.3-0.6-0.4-1-0.4c-0.4,0-0.7,0.1-0.9,0.4C55.3,54.1,55.1,54.4,55.1,54.8z"/>
		<path d="M62.4,57c-0.3,0.2-0.6,0.4-0.8,0.5c-0.3,0.1-0.5,0.2-0.9,0.2c-0.5,0-0.9-0.1-1.2-0.4c-0.3-0.2-0.4-0.6-0.4-0.9
			c0-0.2,0.1-0.4,0.2-0.6c0.1-0.2,0.2-0.3,0.4-0.4s0.4-0.2,0.6-0.3c0.2,0,0.4-0.1,0.7-0.1c0.6-0.1,1.1-0.2,1.4-0.3
			c0-0.1,0-0.2,0-0.2c0-0.3-0.1-0.5-0.2-0.7c-0.2-0.2-0.5-0.3-0.9-0.3c-0.4,0-0.6,0.1-0.8,0.2s-0.3,0.4-0.4,0.7l-0.8-0.1
			c0.1-0.3,0.2-0.6,0.3-0.8s0.4-0.4,0.7-0.5s0.6-0.2,1-0.2c0.4,0,0.7,0,0.9,0.1s0.4,0.2,0.5,0.3c0.1,0.1,0.2,0.3,0.2,0.5
			c0,0.1,0,0.4,0,0.7v1c0,0.7,0,1.2,0,1.4c0,0.2,0.1,0.4,0.2,0.5h-0.8C62.5,57.4,62.4,57.2,62.4,57z M62.3,55.2
			c-0.3,0.1-0.7,0.2-1.3,0.3c-0.3,0-0.5,0.1-0.7,0.2c-0.1,0.1-0.2,0.1-0.3,0.3C60,56.1,60,56.2,60,56.3c0,0.2,0.1,0.4,0.2,0.5
			c0.2,0.1,0.4,0.2,0.7,0.2c0.3,0,0.6-0.1,0.8-0.2s0.4-0.3,0.5-0.5c0.1-0.2,0.1-0.4,0.1-0.8V55.2z"/>
		<path d="M64.3,57.5v-6.3h0.8v6.3H64.3z"/>
		<path d="M67.9,56.8l0.1,0.7c-0.2,0-0.4,0.1-0.6,0.1c-0.3,0-0.5,0-0.7-0.1c-0.2-0.1-0.3-0.2-0.3-0.4c-0.1-0.1-0.1-0.4-0.1-0.9v-2.6
			h-0.6V53h0.6v-1.1l0.8-0.5V53h0.8v0.6h-0.8v2.7c0,0.2,0,0.4,0,0.4c0,0.1,0.1,0.1,0.1,0.2c0.1,0,0.1,0.1,0.3,0.1
			C67.7,56.9,67.8,56.9,67.9,56.8z"/>
		<path d="M68.7,57.5v-6.3h0.8v2.3c0.4-0.4,0.8-0.6,1.4-0.6c0.3,0,0.6,0.1,0.9,0.2c0.2,0.1,0.4,0.3,0.5,0.6s0.2,0.6,0.2,1v2.9h-0.8
			v-2.9c0-0.4-0.1-0.7-0.3-0.8c-0.2-0.2-0.4-0.3-0.7-0.3c-0.2,0-0.4,0.1-0.6,0.2c-0.2,0.1-0.3,0.3-0.4,0.5c-0.1,0.2-0.1,0.5-0.1,0.8
			v2.5H68.7z"/>
	</g>
	<g class="st1">
		<path d="M52.4,68.5h0.8v3.6c0,0.6-0.1,1.1-0.2,1.5s-0.4,0.7-0.8,0.9c-0.4,0.2-0.9,0.4-1.5,0.4c-0.6,0-1.1-0.1-1.4-0.3
			c-0.4-0.2-0.6-0.5-0.8-0.9c-0.2-0.4-0.2-0.9-0.2-1.6v-3.6h0.8v3.6c0,0.5,0.1,1,0.2,1.2c0.1,0.3,0.3,0.5,0.5,0.6
			c0.2,0.1,0.6,0.2,0.9,0.2c0.6,0,1-0.1,1.3-0.4c0.3-0.3,0.4-0.8,0.4-1.6V68.5z"/>
		<path d="M59.1,72.6l0.8,0.2c-0.2,0.7-0.5,1.2-0.9,1.6s-1,0.5-1.7,0.5c-0.7,0-1.2-0.1-1.7-0.4c-0.4-0.3-0.7-0.7-1-1.2
			c-0.2-0.5-0.3-1.1-0.3-1.7c0-0.7,0.1-1.2,0.4-1.7c0.3-0.5,0.6-0.9,1.1-1.1c0.5-0.3,1-0.4,1.5-0.4c0.6,0,1.2,0.2,1.6,0.5
			c0.4,0.3,0.7,0.8,0.9,1.4L59,70.4c-0.1-0.5-0.4-0.8-0.6-1s-0.6-0.3-1-0.3c-0.5,0-0.9,0.1-1.2,0.3c-0.3,0.2-0.6,0.5-0.7,0.9
			c-0.1,0.4-0.2,0.8-0.2,1.2c0,0.5,0.1,1,0.2,1.4c0.2,0.4,0.4,0.7,0.7,0.9c0.3,0.2,0.7,0.3,1.1,0.3c0.5,0,0.9-0.1,1.2-0.4
			S59,73.1,59.1,72.6z"/>
	</g>
</g>
<g>
</g>
<g>
</g>
<g>
</g>
<g>
</g>
<g>
</g>
<g>
</g>
<g>
</g>
<g>
</g>
<g>
</g>
<g>
</g>
<g>
</g>
<g>
</g>
<g>
</g>
<g>
</g>
<g>
</g>
</svg>
